<svg width="512" height="512" viewBox="0 0 512 512" fill="none" xmlns="http://www.w3.org/2000/svg">
<g clip-path="url(#clip0)">
<path d="M509.766 436.881V154.747C509.766 113.332 473.06 79.627 427.914 79.627H405.49V75.12C405.49 33.6909 368.784 0 323.638 0H83.8516C38.7187 0 2 33.6909 2 75.12V357.253C2 398.668 38.72 432.373 83.8516 432.373H106.274V436.881C106.274 478.309 142.994 512 188.127 512H427.913C473.06 512 509.766 478.31 509.766 436.881ZM188.127 487.411C157.708 487.411 133.061 464.788 133.061 436.881V154.747C133.061 126.84 157.708 104.217 188.127 104.217H427.913C458.332 104.217 482.979 126.84 482.979 154.747V436.881C482.979 464.788 458.332 487.411 427.913 487.411H188.127Z" fill="black"/>
<path d="M178.968 202.104H392.025C397.91 202.104 402.676 197.338 402.676 191.453C402.676 185.567 397.91 180.802 392.025 180.802H178.968C173.083 180.802 168.316 185.567 168.316 191.453C168.316 197.338 173.083 202.104 178.968 202.104Z" fill="black"/>
<path d="M212.632 263.832C212.632 269.717 217.412 274.483 223.297 274.483H422.947C428.832 274.483 433.612 269.717 433.612 263.832C433.612 257.947 428.832 253.166 422.947 253.166H223.297C217.412 253.166 212.632 257.946 212.632 263.832Z" fill="black"/>
<path d="M376.738 336.195C376.738 330.31 371.971 325.543 366.086 325.543H178.968C173.083 325.543 168.316 330.31 168.316 336.195C168.316 342.08 173.082 346.86 178.968 346.86H366.086C371.971 346.86 376.738 342.081 376.738 336.195Z" fill="black"/>
<path d="M433.612 408.573C433.612 402.688 428.832 397.922 422.947 397.922H247.599C241.714 397.922 236.947 402.688 236.947 408.573C236.947 414.458 241.713 419.225 247.599 419.225H422.947C428.833 419.225 433.612 414.458 433.612 408.573Z" fill="black"/>
</g>
<defs>
<clipPath id="clip0">
<rect width="512" height="512" fill="white"/>
</clipPath>
</defs>
</svg>
