<?xml version="1.0" encoding="utf-8"?>
<svg version="1.1" x="0px" y="0px" width="32px" height="32px" viewBox="0 0 32 32" xmlns="http://www.w3.org/2000/svg">
  <g transform="matrix(0.052288, 0, 0, 0.052288, -0.000141, -0.000133)">
    <path d="M289.052,191.691l-36.224,87.974c-1.228,2.983-4.017,5.033-7.23,5.315L60.311,301.262 c-4.546,0.399-7.996,4.266-7.877,8.826l3.768,145.442c0.104,3.999,2.941,7.403,6.856,8.228l218.13,45.882 c5.333,1.122,10.753,1.677,16.173,1.665l0.004-43.135V193.336C297.363,181.33,293.623,180.59,289.052,191.691z M263.687,462.923 l-81.886-13.187v-42.921h81.886V462.923z M227.882,264.073L9.518,286.138c-6.671,0.674-11.532-6.18-8.69-12.252L58.973,149.6 c1.183-2.529,3.516-4.331,6.262-4.835l239.934-44.069l-70.262,158.29C233.649,261.819,230.968,263.761,227.882,264.073z M551.689,301.262l-185.286-16.281c-3.214-0.282-6.003-2.332-7.23-5.315l-36.225-87.974c-4.571-11.102-8.312-10.362-8.312,1.644 v274.833l0.004,43.135c5.419,0.013,10.84-0.543,16.174-1.665l218.13-45.882c3.915-0.824,6.752-4.229,6.855-8.228l3.768-145.441 C559.686,305.527,556.234,301.661,551.689,301.262z M475.437,378.948l-10.233,0.283l-0.207,64.406 c-0.009,2.837-2.891,5.55-6.475,6.065l-16.771,2.412c-3.831,0.551-6.966-1.412-6.959-4.392l0.156-67.651l-11.705,0.324 c-5.691,0.157-9.292-4.406-6.395-8.183l27.837-36.274c2.637-3.438,9.109-3.121,11.651,0.501l24.435,34.825 C483.087,374.567,480.158,378.816,475.437,378.948z M602.481,286.138l-218.364-22.065c-3.086-0.312-5.768-2.254-7.025-5.088 l-70.261-158.29l239.934,44.069c2.746,0.504,5.079,2.306,6.263,4.835l58.145,124.286 C614.014,279.958,609.152,286.812,602.481,286.138z" style="fill: rgb(255, 255, 255);"/>
  </g>
  <g/>
  <g/>
  <g/>
  <g/>
  <g/>
  <g/>
  <g/>
  <g/>
  <g/>
  <g/>
  <g/>
  <g/>
  <g/>
  <g/>
  <g/>
</svg>